<svg width="24" height="24" viewBox="0 0 24 24" fill="none" xmlns="http://www.w3.org/2000/svg">
<path d="M3.30023 22.7511C2.94023 22.7511 2.59023 22.6611 2.29023 22.4811C1.62023 22.0911 1.24023 21.3111 1.24023 20.3411V8.98109C1.24023 6.85109 2.97023 5.12109 5.10023 5.12109H12.8802C15.0102 5.12109 16.7402 6.85109 16.7402 8.98109V20.3411C16.7402 21.3111 16.3602 22.0811 15.6902 22.4811C15.0202 22.8711 14.1602 22.8311 13.3102 22.3611L9.38023 20.1711C9.19023 20.0611 8.79024 20.0611 8.60023 20.1711L4.67023 22.3611C4.21023 22.6211 3.74023 22.7511 3.30023 22.7511ZM5.11023 6.63109C3.81023 6.63109 2.75023 7.69109 2.75023 8.99109V20.3511C2.75023 20.7611 2.87023 21.0811 3.06023 21.1911C3.25023 21.3011 3.59023 21.2511 3.95023 21.0511L7.88023 18.8611C8.52023 18.5111 9.48023 18.5111 10.1202 18.8611L14.0502 21.0511C14.4102 21.2511 14.7402 21.3011 14.9402 21.1911C15.1302 21.0811 15.2502 20.7611 15.2502 20.3511V8.99109C15.2502 7.69109 14.1902 6.63109 12.8902 6.63109H5.11023Z" fill="#280056"/>
<path d="M14.69 22.7499C14.25 22.7499 13.79 22.6199 13.32 22.3699L9.39 20.1799C9.2 20.0799 8.79 20.0799 8.6 20.1799L4.68 22.3699C3.83 22.8399 2.96 22.8799 2.3 22.4899C1.63 22.0999 1.25 21.3199 1.25 20.3599V8.99989C1.25 6.86989 2.98 5.13989 5.11 5.13989H12.89C15.02 5.13989 16.75 6.86989 16.75 8.99989V20.3599C16.75 21.3199 16.37 22.0999 15.7 22.4899C15.4 22.6599 15.06 22.7499 14.69 22.7499ZM9 18.5999C9.4 18.5999 9.79 18.6899 10.12 18.8699L14.05 21.0599C14.41 21.2599 14.75 21.3099 14.94 21.1899C15.13 21.0799 15.25 20.7599 15.25 20.3499V8.98989C15.25 7.68989 14.19 6.62989 12.89 6.62989H5.11C3.81 6.62989 2.75 7.68989 2.75 8.98989V20.3499C2.75 20.7599 2.87 21.0799 3.06 21.1899C3.25 21.2999 3.59 21.2499 3.95 21.0499L7.88 18.8599C8.2 18.6899 8.6 18.5999 9 18.5999Z" fill="#280056"/>
<path d="M20.69 18.872C20.25 18.872 19.79 18.742 19.32 18.492L15.63 16.432C15.5137 16.3682 15.417 16.274 15.35 16.1596C15.2831 16.0451 15.2485 15.9146 15.25 15.782V9.00196C15.25 7.70196 14.19 6.64196 12.89 6.64196H8C7.59 6.64196 7.25 6.30196 7.25 5.89196V5.12196C7.25 2.99196 8.98 1.26196 11.11 1.26196H18.89C21.02 1.26196 22.75 2.99196 22.75 5.12196V16.482C22.75 17.442 22.37 18.222 21.7 18.612C21.4 18.782 21.06 18.872 20.69 18.872ZM16.75 15.332L20.05 17.182C20.41 17.382 20.74 17.432 20.94 17.312C21.14 17.192 21.25 16.882 21.25 16.472V5.11196C21.25 3.81196 20.19 2.75196 18.89 2.75196H11.11C9.81 2.75196 8.75 3.81196 8.75 5.11196V5.13196H12.89C15.02 5.13196 16.75 6.86196 16.75 8.99196V15.332Z" fill="#280056"/>
</svg>
